<?xml version="1.0" encoding="UTF-8"?>
<svg enable-background="new 0 0 218.8 244.2" version="1.1" viewBox="0 0 218.8 244.2" xml:space="preserve" xmlns="http://www.w3.org/2000/svg" xmlns:xlink="http://www.w3.org/1999/xlink">
<style type="text/css">
	.st0{fill:#231F20;}
	.st1{clip-path:url(#a);fill:#EFBF1B;}
	.st2{clip-path:url(#a);fill:#40BEB0;}
	.st3{clip-path:url(#a);fill:#0AA5DE;}
	.st4{clip-path:url(#a);fill:#231F20;}
	.st5{fill:#D7A229;}
	.st6{fill:#009B8F;}
</style>

	
		
			<path class="st0" d="m14.7 241.3 1.2-0.1 0.1 2.4c-3.1 0.4-5.7 0.7-7.9 0.7-2.9 0-5-0.8-6.2-2.5s-1.8-4.3-1.8-7.9c0-7.1 2.8-10.7 8.5-10.7 2.7 0 4.8 0.8 6.2 2.3s2 3.9 2 7.2l-0.2 2.3h-13.5c0 2.3 0.4 3.9 1.2 5s2.2 1.6 4.3 1.6c2-0.1 4.1-0.2 6.1-0.3zm-1.1-8.9c0-2.5-0.4-4.3-1.2-5.3s-2.1-1.5-3.9-1.5-3.2 0.5-4.1 1.6-1.4 2.8-1.4 5.2h10.6z"/>
			<path class="st0" d="m21.7 243.8v-29.2h3.1v29.2h-3.1z"/>
			<path class="st0" d="m45.2 229.6v10.4c0.1 1 0.9 1.6 2.4 1.8l-0.1 2.4c-2.1 0-3.8-0.5-4.8-1.6-2.4 1.1-4.9 1.6-7.3 1.6-1.9 0-3.3-0.5-4.3-1.6s-1.5-2.6-1.5-4.6 0.5-3.4 1.5-4.4c1-0.9 2.6-1.5 4.7-1.7l6.4-0.6v-1.8c0-1.4-0.3-2.4-0.9-3s-1.4-0.9-2.4-0.9c-2.2 0-4.4 0.1-6.8 0.4l-1.3 0.1-0.1-2.3c3-0.6 5.6-0.9 7.9-0.9s4 0.5 5 1.6c1.1 1.2 1.6 2.8 1.6 5.1zm-12.5 8.3c0 2.5 1 3.7 3.1 3.7 1.8 0 3.7-0.3 5.5-0.9l0.9-0.3v-6.7l-6 0.6c-1.2 0.1-2.1 0.5-2.6 1.1-0.6 0.5-0.9 1.3-0.9 2.5z"/>
			<path class="st0" d="m57.7 225.7c-3 0-4.4 1-4.4 3.1 0 1 0.3 1.6 1 2s2.2 0.8 4.6 1.2 4.1 1 5.1 1.8 1.5 2.2 1.5 4.3-0.7 3.6-2 4.6-3.3 1.5-5.9 1.5c-1.7 0-3.7-0.2-5.9-0.6l-1.2-0.2 0.2-2.6c3.1 0.5 5.4 0.7 7 0.7s2.8-0.3 3.6-0.8 1.2-1.3 1.2-2.5-0.4-2-1.1-2.4-2.3-0.8-4.6-1.2c-2.4-0.4-4.1-0.9-5.1-1.7-1-0.7-1.5-2.1-1.5-4.1s0.7-3.4 2.1-4.4 3.1-1.4 5.2-1.4c1.7 0 3.7 0.2 6.2 0.6l1.1 0.2-0.1 2.6c-2.9-0.4-5.3-0.7-7-0.7z"/>
			<path class="st0" d="m80.8 226.1h-6.5v9.7c0 2.3 0.2 3.9 0.5 4.6s1.1 1.1 2.4 1.1l3.6-0.2 0.2 2.5c-1.8 0.3-3.2 0.4-4.2 0.4-2.1 0-3.6-0.5-4.4-1.5s-1.2-3-1.2-5.9v-10.7h-2.9v-2.6h2.9v-6.2h3v6.2h6.5v2.6z"/>
			<path class="st0" d="m84.5 218.8v-3.5h3.1v3.5h-3.1zm0 25v-20.4h3.1v20.4h-3.1z"/>
			<path class="st0" d="m101 223c0.9 0 2.4 0.2 4.6 0.5l1 0.1-0.1 2.5c-2.2-0.2-3.8-0.4-4.8-0.4-2.3 0-3.9 0.5-4.7 1.6s-1.2 3.1-1.2 6.1 0.4 5 1.2 6.2 2.4 1.8 4.8 1.8l4.8-0.4 0.1 2.5c-2.5 0.4-4.4 0.6-5.7 0.6-3.2 0-5.4-0.8-6.6-2.4s-1.8-4.4-1.8-8.2 0.7-6.6 2-8.1c1.2-1.6 3.4-2.4 6.4-2.4z"/>
			<path class="st0" d="m117.6 225.7c-3 0-4.4 1-4.4 3.1 0 1 0.3 1.6 1 2s2.2 0.8 4.6 1.2 4.1 1 5.1 1.8 1.5 2.2 1.5 4.3-0.7 3.6-2 4.6-3.3 1.5-5.9 1.5c-1.7 0-3.7-0.2-5.9-0.6l-1.2-0.2 0.2-2.6c3.1 0.5 5.4 0.7 7 0.7s2.8-0.3 3.6-0.8 1.2-1.3 1.2-2.5-0.4-2-1.1-2.4-2.3-0.8-4.6-1.2c-2.4-0.4-4.1-0.9-5.1-1.7-1-0.7-1.5-2.1-1.5-4.1s0.7-3.4 2.1-4.4 3.1-1.4 5.2-1.4c1.7 0 3.7 0.2 6.2 0.6l1.1 0.2-0.1 2.6c-2.9-0.4-5.3-0.7-7-0.7z"/>
			<path class="st0" d="m144 241.3 1.2-0.1 0.1 2.4c-3.1 0.4-5.7 0.7-7.9 0.7-2.9 0-5-0.8-6.2-2.5s-1.8-4.3-1.8-7.9c0-7.1 2.8-10.7 8.5-10.7 2.7 0 4.8 0.8 6.2 2.3s2 3.9 2 7.2l-0.2 2.3h-13.4c0 2.3 0.4 3.9 1.2 5s2.2 1.6 4.3 1.6c1.8-0.1 3.9-0.2 6-0.3zm-1.1-8.9c0-2.5-0.4-4.3-1.2-5.3s-2.1-1.5-3.9-1.5-3.2 0.5-4.1 1.6-1.4 2.8-1.4 5.2h10.6z"/>
			<path class="st0" d="m165.1 229.6v10.4c0.1 1 0.9 1.6 2.4 1.8l-0.1 2.4c-2.1 0-3.8-0.5-4.8-1.6-2.4 1.1-4.9 1.6-7.3 1.6-1.9 0-3.3-0.5-4.3-1.6s-1.5-2.6-1.5-4.6 0.5-3.4 1.5-4.4c1-0.9 2.6-1.5 4.7-1.7l6.4-0.6v-1.8c0-1.4-0.3-2.4-0.9-3s-1.4-0.9-2.4-0.9c-2.2 0-4.4 0.1-6.8 0.4l-1.3 0.1-0.1-2.3c3-0.6 5.6-0.9 7.9-0.9s4 0.5 5 1.6c1 1.2 1.6 2.8 1.6 5.1zm-12.6 8.3c0 2.5 1 3.7 3.1 3.7 1.8 0 3.7-0.3 5.5-0.9l0.9-0.3v-6.7l-6 0.6c-1.2 0.1-2.1 0.5-2.6 1.1-0.6 0.5-0.9 1.3-0.9 2.5z"/>
			<path class="st0" d="m171.1 243.8v-20.4h3v2.8c2.4-1.6 4.8-2.7 7.5-3.2v3.1c-1.1 0.2-2.3 0.6-3.6 1-1.2 0.5-2.2 0.9-2.8 1.2l-1 0.5v14.9h-3.1z"/>
			<path class="st0" d="m192.4 223c0.9 0 2.4 0.2 4.6 0.5l1 0.1-0.1 2.5c-2.2-0.2-3.8-0.4-4.8-0.4-2.3 0-3.9 0.5-4.7 1.6s-1.2 3.1-1.2 6.1 0.4 5 1.2 6.2 2.4 1.8 4.8 1.8l4.8-0.4 0.1 2.5c-2.5 0.4-4.4 0.6-5.7 0.6-3.2 0-5.4-0.8-6.6-2.4s-1.8-4.4-1.8-8.2 0.7-6.6 2-8.1c1.2-1.6 3.4-2.4 6.4-2.4z"/>
			<path class="st0" d="m205.6 243.8h-3.1v-29.2h3.1v10c2.2-1 4.3-1.5 6.3-1.5 2.7 0 4.5 0.7 5.5 2.2 0.9 1.5 1.4 4.1 1.4 7.8v10.8h-3.1v-10.7c0-2.8-0.3-4.8-0.8-5.8-0.6-1-1.7-1.6-3.5-1.6-1.7 0-3.4 0.3-5 0.9l-0.8 0.3v16.8z"/>
		
	
	
		
			
				<defs>
					<circle id="b" cx="109.4" cy="92.5" r="92.5"/>
				</defs>
				<clipPath id="a">
					<use xlink:href="#b"/>
				</clipPath>
				<path class="st1" d="m149 52h-126.4c-3.2 0-5.8-2.6-5.8-5.8v-40.4c0-3.2 2.6-5.8 5.8-5.8h164.7c3.2 0 5.8 2.6 5.8 5.8v2.1c0 24.3-19.8 44.1-44.1 44.1z"/>
				<path class="st2" d="m193.5 185h-176.1s-0.1 0-0.1-0.1v-51.9s0-0.1 0.1-0.1h132.1c24.3 0 44 19.7 44 44v8.1z"/>
				<path class="st3" d="m138.5 118.5h-130.9v-52h130.9c14.4 0 26 11.7 26 26 0 14.4-11.7 26-26 26z"/>
				<path class="st4" d="m97.8 66.5h-85.5v52h85.7c1.9-7.8 3-16.5 3-26 0-9.6-1.2-18.2-3.2-26z"/>
			
			<path class="st5" d="m62.9 12.5c-15.8 9.2-28.6 22.9-36.7 39.4h68.3c-7.1-15.6-18-29.2-31.6-39.4z"/>
			<path class="st6" d="m65.6 173.9c13.3-10.8 23.9-24.8 30.5-40.9h-69.9c8.5 17.4 22.4 31.8 39.4 40.9z"/>
		
	

</svg>
