<svg xmlns="http://www.w3.org/2000/svg" xmlns:xlink="http://www.w3.org/1999/xlink" xml:space="preserve" viewBox="0 0 218.8 244.2"><path d="m14.7 241.3 1.2-.1.1 2.4c-3.1.4-5.7.7-7.9.7-2.9 0-5-.8-6.2-2.5s-1.8-4.3-1.8-7.9c0-7.1 2.8-10.7 8.5-10.7 2.7 0 4.8.8 6.2 2.3s2 3.9 2 7.2l-.2 2.3H3.1c0 2.3.4 3.9 1.2 5s2.2 1.6 4.3 1.6c2-.1 4.1-.2 6.1-.3m-1.1-8.9c0-2.5-.4-4.3-1.2-5.3s-2.1-1.5-3.9-1.5-3.2.5-4.1 1.6S3 230 3 232.4zm8.1 11.4v-29.2h3.1v29.2zm23.5-14.2V240q.15 1.5 2.4 1.8l-.1 2.4c-2.1 0-3.8-.5-4.8-1.6-2.4 1.1-4.9 1.6-7.3 1.6-1.9 0-3.3-.5-4.3-1.6s-1.5-2.6-1.5-4.6.5-3.4 1.5-4.4c1-.9 2.6-1.5 4.7-1.7l6.4-.6v-1.8q0-2.1-.9-3c-.9-.9-1.4-.9-2.4-.9-2.2 0-4.4.1-6.8.4l-1.3.1-.1-2.3c3-.6 5.6-.9 7.9-.9s4 .5 5 1.6c1.1 1.2 1.6 2.8 1.6 5.1m-12.5 8.3c0 2.5 1 3.7 3.1 3.7 1.8 0 3.7-.3 5.5-.9l.9-.3v-6.7l-6 .6c-1.2.1-2.1.5-2.6 1.1-.6.5-.9 1.3-.9 2.5m25-12.2c-3 0-4.4 1-4.4 3.1 0 1 .3 1.6 1 2s2.2.8 4.6 1.2 4.1 1 5.1 1.8 1.5 2.2 1.5 4.3-.7 3.6-2 4.6-3.3 1.5-5.9 1.5c-1.7 0-3.7-.2-5.9-.6l-1.2-.2.2-2.6c3.1.5 5.4.7 7 .7s2.8-.3 3.6-.8 1.2-1.3 1.2-2.5-.4-2-1.1-2.4-2.3-.8-4.6-1.2c-2.4-.4-4.1-.9-5.1-1.7-1-.7-1.5-2.1-1.5-4.1s.7-3.4 2.1-4.4 3.1-1.4 5.2-1.4c1.7 0 3.7.2 6.2.6l1.1.2-.1 2.6c-2.9-.4-5.3-.7-7-.7m23.1.4h-6.5v9.7c0 2.3.2 3.9.5 4.6s1.1 1.1 2.4 1.1l3.6-.2.2 2.5c-1.8.3-3.2.4-4.2.4-2.1 0-3.6-.5-4.4-1.5s-1.2-3-1.2-5.9v-10.7h-2.9v-2.6h2.9v-6.2h3v6.2h6.5v2.6zm3.7-7.3v-3.5h3.1v3.5zm0 25v-20.4h3.1v20.4zM101 223c.9 0 2.4.2 4.6.5l1 .1-.1 2.5c-2.2-.2-3.8-.4-4.8-.4-2.3 0-3.9.5-4.7 1.6s-1.2 3.1-1.2 6.1.4 5 1.2 6.2 2.4 1.8 4.8 1.8l4.8-.4.1 2.5q-3.75.6-5.7.6-4.8 0-6.6-2.4c-1.8-2.4-1.8-4.4-1.8-8.2s.7-6.6 2-8.1c1.2-1.6 3.4-2.4 6.4-2.4m16.6 2.7c-3 0-4.4 1-4.4 3.1 0 1 .3 1.6 1 2s2.2.8 4.6 1.2 4.1 1 5.1 1.8 1.5 2.2 1.5 4.3-.7 3.6-2 4.6-3.3 1.5-5.9 1.5c-1.7 0-3.7-.2-5.9-.6l-1.2-.2.2-2.6c3.1.5 5.4.7 7 .7s2.8-.3 3.6-.8 1.2-1.3 1.2-2.5-.4-2-1.1-2.4-2.3-.8-4.6-1.2c-2.4-.4-4.1-.9-5.1-1.7-1-.7-1.5-2.1-1.5-4.1s.7-3.4 2.1-4.4 3.1-1.4 5.2-1.4c1.7 0 3.7.2 6.2.6l1.1.2-.1 2.6c-2.9-.4-5.3-.7-7-.7m26.4 15.6 1.2-.1.1 2.4c-3.1.4-5.7.7-7.9.7-2.9 0-5-.8-6.2-2.5s-1.8-4.3-1.8-7.9c0-7.1 2.8-10.7 8.5-10.7 2.7 0 4.8.8 6.2 2.3s2 3.9 2 7.2l-.2 2.3h-13.4c0 2.3.4 3.9 1.2 5s2.2 1.6 4.3 1.6c1.8-.1 3.9-.2 6-.3m-1.1-8.9c0-2.5-.4-4.3-1.2-5.3s-2.1-1.5-3.9-1.5-3.2.5-4.1 1.6-1.4 2.8-1.4 5.2zm22.2-2.8V240q.15 1.5 2.4 1.8l-.1 2.4c-2.1 0-3.8-.5-4.8-1.6-2.4 1.1-4.9 1.6-7.3 1.6-1.9 0-3.3-.5-4.3-1.6s-1.5-2.6-1.5-4.6.5-3.4 1.5-4.4c1-.9 2.6-1.5 4.7-1.7l6.4-.6v-1.8q0-2.1-.9-3c-.9-.9-1.4-.9-2.4-.9-2.2 0-4.4.1-6.8.4l-1.3.1-.1-2.3c3-.6 5.6-.9 7.9-.9s4 .5 5 1.6c1 1.2 1.6 2.8 1.6 5.1m-12.6 8.3c0 2.5 1 3.7 3.1 3.7 1.8 0 3.7-.3 5.5-.9l.9-.3v-6.7l-6 .6c-1.2.1-2.1.5-2.6 1.1-.6.5-.9 1.3-.9 2.5m18.6 5.9v-20.4h3v2.8c2.4-1.6 4.8-2.7 7.5-3.2v3.1c-1.1.2-2.3.6-3.6 1-1.2.5-2.2.9-2.8 1.2l-1 .5v14.9h-3.1zm21.3-20.8c.9 0 2.4.2 4.6.5l1 .1-.1 2.5c-2.2-.2-3.8-.4-4.8-.4-2.3 0-3.9.5-4.7 1.6s-1.2 3.1-1.2 6.1.4 5 1.2 6.2 2.4 1.8 4.8 1.8l4.8-.4.1 2.5q-3.75.6-5.7.6-4.8 0-6.6-2.4c-1.8-2.4-1.8-4.4-1.8-8.2s.7-6.6 2-8.1c1.2-1.6 3.4-2.4 6.4-2.4m13.2 20.8h-3.1v-29.2h3.1v10q3.3-1.5 6.3-1.5c2.7 0 4.5.7 5.5 2.2.9 1.5 1.4 4.1 1.4 7.8v10.8h-3.1v-10.7c0-2.8-.3-4.8-.8-5.8-.6-1-1.7-1.6-3.5-1.6-1.7 0-3.4.3-5 .9l-.8.3z" style="fill:#231f20"/><defs><circle id="a" cx="109.4" cy="92.5" r="92.5"/></defs><clipPath id="b"><use xlink:href="#a"/></clipPath><path d="M149 52H22.6c-3.2 0-5.8-2.6-5.8-5.8V5.8c0-3.2 2.6-5.8 5.8-5.8h164.7c3.2 0 5.8 2.6 5.8 5.8v2.1c0 24.3-19.8 44.1-44.1 44.1" style="clip-path:url(#b);fill:#efbf1b"/><path d="M193.5 185H17.4s-.1 0-.1-.1V133s0-.1.1-.1h132.1c24.3 0 44 19.7 44 44z" style="clip-path:url(#b);fill:#40beb0"/><path d="M138.5 118.5H7.6v-52h130.9c14.4 0 26 11.7 26 26 0 14.4-11.7 26-26 26" style="clip-path:url(#b);fill:#0aa5de"/><path d="M97.8 66.5H12.3v52H98c1.9-7.8 3-16.5 3-26 0-9.6-1.2-18.2-3.2-26" style="clip-path:url(#b);fill:#231f20"/><path d="M62.9 12.5c-15.8 9.2-28.6 22.9-36.7 39.4h68.3c-7.1-15.6-18-29.2-31.6-39.4" style="fill:#d7a229"/><path d="M65.6 173.9c13.3-10.8 23.9-24.8 30.5-40.9H26.2c8.5 17.4 22.4 31.8 39.4 40.9" style="fill:#009b8f"/></svg>