<svg xmlns="http://www.w3.org/2000/svg" width="800" height="218" style="shape-rendering:geometricPrecision;text-rendering:geometricPrecision;image-rendering:optimizeQuality;fill-rule:evenodd;clip-rule:evenodd"><path fill="#b8e1f3" d="M764.5 63.5h-41v-6q7.66.501 13-1a49 49 0 0 0-8-5.5 1122 1122 0 0 0-67 0 215 215 0 0 0-11 4.5q-5.17 2.33-6 8h46q-.49 15.27 1 30v13h-1a2023 2023 0 0 1-55-24 984 984 0 0 1 38-17.5q-14.991-.75-30-.5-12.726-1.49-26-1 25.154-40.47 73.5-41 48.347.53 73.5 41" style="opacity:.973"/><path fill="#f5fafd" d="M736.5 56.5q-43.257.497-86-1 5.396-2.385 11-4.5 33.5-1 67 0a49 49 0 0 1 8 5.5" style="opacity:1"/><path fill="#eaf7fd" d="M650.5 55.5q42.743 1.497 86 1-5.34 1.501-13 1v6h-79q.83-5.67 6-8" style="opacity:1"/><path fill="#4b94cb" d="M617.5 63.5q13.274-.49 26 1 0 1-1 1z" style="opacity:1"/><path fill="#277abe" d="M93.5 64.5q23.643-3.538 39.5 14 4.955 7.9 6.5 17-9.014.25-18-.5-6.414-17.466-25-14Q82.165 84.888 79 99.5q-4.782 19.611 8.5 34.5 10.703 7.02 23 3 7.795-3.545 11-11.5a82 82 0 0 1 18-1q-4.178 24.928-29 29.5-47.49 3.273-51-44.5.795-35.211 34-45" style="opacity:.943"/><path fill="#277abe" d="M538.5 64.5q23.991-3.255 40.5 14 4.406 5.81 5.5 13-9.014.25-18-.5-6.609-10.884-19.5-10.5-22.048 1.046-25 23-3.603 38.904 34.5 33.5 11.694-4.929 12-17.5h-23v-16h41q3.523 57.234-53 49.5-29.997-11.2-30-43.5.66-35.901 35-45" style="opacity:.933"/><path fill="#277abe" d="m617.5 63.5 25 2-7.5 15q2.89 13.132 10 25a257 257 0 0 0 18.5 25q.103 8.03 1 16a4.93 4.93 0 0 0 .5 3 995 995 0 0 1 25.5 28q.865 1.91 2 0a64338 64338 0 0 1 20-34 242 242 0 0 0 14.5-12q.75-13.491.5-27l19-22q.456-.975 1-2l-6-15a145 145 0 0 1 24-1q17.69 29.73 10.5 64-12.692 48.693-60.5 64.5-64.346 14.064-100.5-40.5-19.191-36.912-5-76 3.033-7.085 7.5-13" style="opacity:.985"/><path fill="#68c1ea" d="M723.5 64.5v28a798 798 0 0 1-30 14q-1 0-1 1h-1v-43z" style="opacity:1"/><path fill="#4e8bc9" d="M723.5 63.5h41q1 0 1 1a145 145 0 0 0-24 1l6 15q-.544 1.025-1 2a351 351 0 0 0-23 10z" style="opacity:1"/><path fill="#277abe" d="M22.5 66.5h17v86h-17z" style="opacity:.982"/><path fill="#277abe" d="M158.5 66.5h63v16h-45v18h43v16h-43v21h46v15h-64z" style="opacity:.949"/><path fill="#277abe" d="M243.5 66.5q23.005-.25 46 .5 27.86 6.47 18.5 33.5a45.3 45.3 0 0 1-8.5 7.5q17.971 7.186 13.5 26.5-5.306 15.295-21.5 17.5-23.995.75-48 .5zm17 15q12.01-.25 24 .5 12.004 3.295 7 14.5-2.446 2.696-6 3.5-12.49.75-25 .5zm0 34q14.068-.414 28 1.5 11.166 5.498 5.5 16.5a18.6 18.6 0 0 1-6.5 3.5q-13.491.75-27 .5z" style="opacity:.963"/><path fill="#277abe" d="M333.5 66.5h63v16h-45v18h43v16h-43v21h45v15h-63z" style="opacity:.955"/><path fill="#277abe" d="M418.5 66.5a434 434 0 0 1 49 1.5q26.649 10.902 17.5 38.5-5.25 9.25-14.5 14.5l21 31q-10.5 1-21 0a613 613 0 0 1-18-28 145 145 0 0 0-17-.5v29h-17zm17 15a98 98 0 0 1 28 2.5q9.569 7.65 3.5 18.5a15.8 15.8 0 0 1-5.5 3.5 124 124 0 0 1-26 1.5z" style="opacity:.967"/><path fill="#a2d8f1" d="M690.5 63.5h33v1h-32v29q-1.49-14.73-1-30" style="opacity:1"/><path fill="#90d4f0" d="M643.5 64.5q15.009-.25 30 .5a984 984 0 0 0-38 17.5 2023 2023 0 0 0 55 24q-.539 2.807-3 4.5a227 227 0 0 0-24 19.5 257 257 0 0 1-18.5-25q-7.11-11.868-10-25l7.5-15q1 0 1-1" style="opacity:1"/><path fill="#266fa8" d="m746.5 82.5-19 22a779 779 0 0 0-32 3q-1.374-.064-2-1a798 798 0 0 0 30-14 351 351 0 0 1 23-10" style="opacity:1"/><path fill="#4d8ac8" d="M727.5 104.5q.25 13.509-.5 27a242 242 0 0 1-14.5 12l-1-2a426 426 0 0 1-19-34q0-1 1-1 .626.936 2 1a779 779 0 0 1 32-3" style="opacity:1"/><path fill="#abdcf1" d="M690.5 106.5h1v25h-1q-13.497-.571-27-1a227 227 0 0 1 24-19.5q2.461-1.694 3-4.5" style="opacity:1"/><path fill="#54a5d7" d="M691.5 107.5h1a426 426 0 0 0 19 34 125.6 125.6 0 0 1-20-10z" style="opacity:1"/><path fill="#b6e0f2" d="M663.5 130.5q13.503.429 27 1v22a252 252 0 0 1-22-3.5 20.7 20.7 0 0 1-4-3.5 162 162 0 0 1-1-16" style="opacity:1"/><path fill="#58afde" d="M690.5 131.5h1a125.6 125.6 0 0 0 20 10l1 2a273 273 0 0 0-20 9.5q-1.434 5.091-1 10.5-1.469-4.687-1-10z" style="opacity:1"/><path fill="#266fa8" d="M712.5 143.5a64338 64338 0 0 0-20 34q-1.135 1.91-2 0 1.479-6.705 1-14-.434-5.409 1-10.5a273 273 0 0 1 20-9.5" style="opacity:1"/><path fill="#8fd3f0" d="M664.5 146.5a20.7 20.7 0 0 0 4 3.5 252 252 0 0 0 22 3.5q-.469 5.313 1 10 .479 7.295-1 14a995 995 0 0 0-25.5-28 4.93 4.93 0 0 1-.5-3" style="opacity:1"/></svg>