<svg xmlns="http://www.w3.org/2000/svg" width="156.259" height="32"><defs><radialGradient id="a" cx="1.259" cy="1.239" r="1.669" gradientUnits="objectBoundingBox"><stop offset=".352" stop-color="#578e31"/><stop offset="1" stop-color="#a8ca57"/></radialGradient></defs><path fill="#4b4e51" d="m-118.481-184.846.147 2.045a6.18 6.18 0 0 1 5.088-2.372 5.14 5.14 0 0 1 4.188 1.652 7.7 7.7 0 0 1 1.406 4.941v11.434h-4.727v-11.32a3.07 3.07 0 0 0-.655-2.184 2.93 2.93 0 0 0-2.175-.679 3.25 3.25 0 0 0-2.994 1.7v12.481h-4.727v-17.7Z" data-name="Caminho 1" style="fill:#fff;stroke:#eeeeef;stroke-opacity:.94117647;stroke-width:.56692913;stroke-miterlimit:4;stroke-dasharray:none;fill-opacity:1" transform="translate(208.067 196.179)"/><path fill="#4b4e51" d="M-75.658-167.147a5.2 5.2 0 0 1-.474-1.587 5.72 5.72 0 0 1-4.468 1.914 6.28 6.28 0 0 1-4.31-1.505 4.84 4.84 0 0 1-1.71-3.795 5 5 0 0 1 2.086-4.319 10.3 10.3 0 0 1 6.028-1.522h2.176v-1.014a2.92 2.92 0 0 0-.63-1.963 2.48 2.48 0 0 0-1.987-.737 2.82 2.82 0 0 0-1.874.573 1.95 1.95 0 0 0-.679 1.57h-4.728a4.75 4.75 0 0 1 .949-2.846 6.3 6.3 0 0 1 2.683-2.054 9.8 9.8 0 0 1 3.893-.744 7.73 7.73 0 0 1 5.194 1.644 5.75 5.75 0 0 1 1.922 4.621v7.672a8.45 8.45 0 0 0 .7 3.811v.279Zm-3.91-3.288a4.1 4.1 0 0 0 1.931-.466 3.07 3.07 0 0 0 1.309-1.251v-3.043H-78.1q-3.551 0-3.779 2.454l-.016.278a1.9 1.9 0 0 0 .621 1.456 2.4 2.4 0 0 0 1.706.572Z" data-name="Caminho 2" style="fill:#fff;stroke:#eeeeef;stroke-opacity:.94117647;stroke-width:.56692913;stroke-miterlimit:4;stroke-dasharray:none;fill-opacity:1" transform="translate(189.911 196.179)"/><path fill="#4b4e51" d="M-50.762-183.226a10.67 10.67 0 0 1 1.857-6.592 6.03 6.03 0 0 1 5.079-2.454 5.42 5.42 0 0 1 4.269 1.931v-9.03h4.745v25.125h-4.27l-.229-1.881a5.56 5.56 0 0 1-4.548 2.208 6 6 0 0 1-5.014-2.462 11 11 0 0 1-1.889-6.845Zm4.727.352a7 7 0 0 0 .868 3.818 2.82 2.82 0 0 0 2.519 1.327 3.16 3.16 0 0 0 3.091-1.851v-7a3.12 3.12 0 0 0-3.059-1.851q-3.418.004-3.419 5.557Z" data-name="Caminho 3" style="fill:#fff;stroke:#eeeeef;stroke-opacity:.94117647;stroke-width:.56692913;stroke-miterlimit:4;stroke-dasharray:none;fill-opacity:1" transform="translate(171.983 203.278)"/><path fill="#4b4e51" d="M-4.029-166.82a8.7 8.7 0 0 1-6.339-2.388 8.5 8.5 0 0 1-2.445-6.363v-.458a10.7 10.7 0 0 1 1.03-4.769 7.57 7.57 0 0 1 2.92-3.239 8.2 8.2 0 0 1 4.311-1.137 7.35 7.35 0 0 1 5.717 2.29 9.3 9.3 0 0 1 2.086 6.494v1.931H-8.02a4.4 4.4 0 0 0 1.382 2.78 4.18 4.18 0 0 0 2.92 1.047 5.1 5.1 0 0 0 4.27-1.979l2.323 2.6a7.1 7.1 0 0 1-2.879 2.348 9.45 9.45 0 0 1-4.025.843Zm-.54-14.542a2.96 2.96 0 0 0-2.282.953 4.94 4.94 0 0 0-1.121 2.728H-1.4v-.378a3.52 3.52 0 0 0-.851-2.44 3.05 3.05 0 0 0-2.318-.863Z" data-name="Caminho 4" style="fill:#fff;stroke:#eeeeef;stroke-opacity:.94117647;stroke-width:.56692913;stroke-miterlimit:4;stroke-dasharray:none;fill-opacity:1" transform="translate(153.009 196.179)"/><path fill="url(#a)" d="M-148.106-176.208a12.5 12.5 0 0 0 .7-5.383 12.47 12.47 0 0 0-11.3-11.268 12.45 12.45 0 0 0-5.671.828 5.7 5.7 0 0 1-3.736.235 2.43 2.43 0 0 0-1.315-.021 2.37 2.37 0 0 0-1.69 1.69 2.43 2.43 0 0 0 .021 1.313 5.68 5.68 0 0 1-.239 3.727 12.45 12.45 0 0 0-.84 5.676 12.475 12.475 0 0 0 11.422 11.331 12.4 12.4 0 0 0 5.547-.838 6.04 6.04 0 0 1 4.04-.171 2.4 2.4 0 0 0 1.136.07 2.4 2.4 0 0 0 1.935-1.944 2.4 2.4 0 0 0-.121-1.265 5.7 5.7 0 0 1 .111-3.98" data-name="Caminho 6" transform="translate(232.709 200.045)"/><path fill="#4b4e51" d="M-288.294-176.88h10.42v3.943H-293.2v-23.817h4.907Z" data-name="Caminho 7" style="fill:#fff;stroke:#eeeeef;stroke-opacity:.94117647;stroke-width:.56692913;stroke-miterlimit:4;stroke-dasharray:none;fill-opacity:1" transform="translate(293.201 201.969)"/><path fill="#4b4e51" d="M-250.034-166.82a8.7 8.7 0 0 1-6.339-2.388 8.5 8.5 0 0 1-2.445-6.363v-.458a10.7 10.7 0 0 1 1.031-4.769 7.57 7.57 0 0 1 2.92-3.239 8.2 8.2 0 0 1 4.31-1.137 7.35 7.35 0 0 1 5.717 2.29 9.3 9.3 0 0 1 2.086 6.494v1.931h-11.27a4.4 4.4 0 0 0 1.382 2.78 4.18 4.18 0 0 0 2.92 1.047 5.1 5.1 0 0 0 4.269-1.979l2.323 2.6a7.1 7.1 0 0 1-2.879 2.348 9.45 9.45 0 0 1-4.025.843Zm-.54-14.542a2.95 2.95 0 0 0-2.282.953 4.93 4.93 0 0 0-1.12 2.728h6.576v-.378a3.52 3.52 0 0 0-.85-2.44 3.05 3.05 0 0 0-2.324-.863Z" data-name="Caminho 8" style="fill:#fff;stroke:#eeeeef;stroke-opacity:.94117647;stroke-width:.56692913;stroke-miterlimit:4;stroke-dasharray:none;fill-opacity:1" transform="translate(276.01 196.179)"/><path fill="#4b4e51" d="m-216.894-184.846.147 1.979a6.22 6.22 0 0 1 5.088-2.306 4.72 4.72 0 0 1 4.695 2.7 6.08 6.08 0 0 1 5.316-2.7 5.28 5.28 0 0 1 4.286 1.677 7.7 7.7 0 0 1 1.407 5.046v11.3h-4.745v-11.287a3.37 3.37 0 0 0-.589-2.2 2.61 2.61 0 0 0-2.078-.695 2.95 2.95 0 0 0-2.944 2.028l.016 12.154h-4.727v-11.271a3.33 3.33 0 0 0-.605-2.225 2.64 2.64 0 0 0-2.061-.687 3.06 3.06 0 0 0-2.912 1.668v12.514h-4.728v-17.7Z" data-name="Caminho 9" style="fill:#fff;stroke:#eeeeef;stroke-opacity:.94117647;stroke-width:.56692913;stroke-miterlimit:4;stroke-dasharray:none;fill-opacity:1" transform="translate(257.264 196.179)"/></svg>