<svg xmlns="http://www.w3.org/2000/svg" viewBox="0 0 372 72"><desc>Search engine software fork of Elasticsearch</desc><path fill="#00A3E0" d="M61.737 26.5a2.263 2.263 0 0 0-2.262 2.263c0 18.618-15.094 33.712-33.712 33.712a2.263 2.263 0 1 0 0 4.525C46.88 67 64 49.88 64 28.763a2.263 2.263 0 0 0-2.263-2.263"/><path fill="#B9D9EB" d="M48.081 41c2.176-3.55 4.28-8.282 3.866-14.908C51.09 12.367 38.66 1.955 26.922 3.084c-4.596.441-9.314 4.187-8.895 10.897.182 2.915 1.61 4.636 3.928 5.959 2.208 1.26 5.044 2.057 8.259 2.961 3.883 1.092 8.388 2.32 11.85 4.87 4.15 3.059 6.986 6.603 6.018 13.229"/><path fill="#00A3E0" d="M3.919 17C1.743 20.55-.361 25.282.052 31.908.91 45.633 13.342 56.045 25.08 54.916c4.596-.441 9.314-4.187 8.895-10.896-.182-2.916-1.61-4.637-3.928-5.96-2.208-1.26-5.044-2.057-8.259-2.961-3.883-1.092-8.388-2.32-11.85-4.87C5.787 27.17 2.951 23.625 3.919 17"/><path fill="#B9D9EB" fill-rule="evenodd" d="M362.5 31v23h9V29q0-6.909-2.701-10.449C366.998 16.167 364.282 15 360.75 15c-3.832 0-6.903 2.24-8.75 6h-.5c.136-1.94.26-3.053.35-3.865.093-.837.15-1.355.15-2.135V.5h-9V54h9.5V35.5c0-4.149.139-7.218.993-9.419q1.281-3.335 4.467-3.335c2.839 0 4.54 2.638 4.54 8.254M231.852 51.229q3.648-3.77 3.648-10.864 0-4.428-1.999-7.888-1.965-3.46-6.98-6.781-3.718-2.422-5.227-4.325-1.473-1.902-1.473-4.463 0-2.594 1.228-4.082 1.263-1.523 3.578-1.523 2.104 0 3.928.761a30 30 0 0 1 3.543 1.73l3.156-7.542Q229.818 3 223.925 3q-6.174 0-9.856 3.806-3.648 3.806-3.648 10.31 0 3.39.912 5.95a16.2 16.2 0 0 0 2.631 4.637q1.718 2.04 5.015 4.29 3.789 2.56 5.437 4.67 1.649 2.076 1.649 4.602 0 2.56-1.403 4.048-1.368 1.487-4.104 1.487-4.806 0-10.558-3.702v9.307Q214.7 55 221.4 55q6.84 0 10.452-3.771m9.822-1.355Q245.883 55 253.152 55q6.226 0 10.678-2.667V44.75q-4.73 2.805-9.252 2.805-3.548 0-5.565-2.493c-1.345-1.686-1.943-4.12-2.013-7.561h18.5v-5.045q0-8.277-3.652-12.849-3.652-4.605-9.983-4.606-6.782 0-10.574 5.368-3.79 5.368-3.791 14.926 0 9.42 4.174 14.58m6.852-25.662q1.287-2.112 3.27-2.112 2.121 0 3.339 2.181c.811 1.455 1.319 3.902 1.365 6.719H247c.139-2.932.668-5.403 1.526-6.788M288 54l-1.5-5h-.5c-1.378 2.259-2.705 3.868-4.176 4.72Q279.615 55 276.252 55q-4.31 0-6.799-3.18Q267 48.638 267 42.968q0-6.085 3.364-9.023 3.399-2.974 10.128-3.285l5.186-.207v-2.766q0-5.393-4.731-5.393-3.504 0-8.06 2.696l-3.224-6.36c3.878-2.42 8.031-3.63 12.587-3.63 4.135 0 7.342 1.176 9.491 3.526q3.26 3.492 3.259 9.923V54zm-7.929-6.191q2.559 0 4.065-2.247 1.542-2.282 1.542-6.05v-3.25l-2.873.138q-3.19.173-4.696 1.798-1.472 1.625-1.472 4.84 0 4.77 3.434 4.771M318 15.75c-1.07-.345-2.663-.75-3.778-.75q-2.357 0-4.133 1.552c-1.776 1.552-2.087 2.033-3.089 4.448h-.5l-1.5-5h-7v38h9.463V34c0-3.358.213-5.524 1.397-7.271q1.776-2.657 5.088-2.657a7.7 7.7 0 0 1 2.552.428zM332 55c-4.557 0-8.046-1.522-10.427-4.87Q318 45.11 318 35.377q0-10.182 3.366-15.203c2.268-3.348 5.651-5.174 10.369-5.174 1.419 0 3.017.36 4.574.775s3.454.94 4.691 1.725l-3.111 7.245q-2.85-1.697-5.049-1.697-2.92 0-4.226 3.082-1.27 3.048-1.27 9.178 0 5.991 1.27 8.97 1.272 2.943 4.157 2.943 3.435 0 7.179-2.424V52.9c-2.404 1.5-5.042 2.1-7.95 2.1" clip-rule="evenodd"/><path fill="#00A3E0" fill-rule="evenodd" d="M107.777 48.263q4.723-6.738 4.723-19.28t-4.688-19.245Q103.122 3 94.337 3q-8.89 0-13.614 6.703Q76 16.373 76 28.913q0 12.646 4.723 19.384Q85.447 55 94.267 55q8.787 0 13.51-6.737m-19.934-6.116q-2.189-4.527-2.188-13.164 0-8.673 2.188-13.164 2.187-4.527 6.494-4.527 8.474 0 8.474 17.69c0 17.69-2.848 17.691-8.544 17.691q-4.236 0-6.425-4.526m40.343 11.85C129.469 54.74 130.85 55 132.5 55c3.53 0 6.4-1.673 8.44-5.239Q144 44.413 144 35.003q0-9.55-2.957-14.76Q138.087 15 132.861 15c-3.621 0-6.459 2.157-8.361 6h-.5l-1.5-5h-7v55.5h9V55c0-.648-.133-2.851-.5-6h.5c.75 2.25 2.425 4.234 3.686 4.998m-2.304-28.614q1.204-2.535 3.885-2.535 2.51 0 3.679 2.987 1.203 2.985 1.203 9.029 0 12.293-4.813 12.293-2.785 0-3.988-2.917c-1.203-2.917-1.203-5.047-1.203-9.307v-1.215q.069-5.835 1.237-8.335M161.652 55q-7.269 0-11.478-5.125Q146 44.715 146 35.295q0-9.559 3.791-14.927T160.365 15q6.33 0 9.983 4.606Q174 24.177 174 32.454V37.5h-18.5c.07 3.44.668 5.875 2.013 7.56q2.018 2.494 5.565 2.494 4.522 0 9.252-2.805v7.584Q167.878 55 161.652 55m-1.356-32.9q-1.983 0-3.27 2.112c-.858 1.385-1.387 3.856-1.526 6.788h9.5c-.046-2.817-.554-5.264-1.365-6.719q-1.218-2.181-3.339-2.181M196.5 31v23h9V29.2q0-6.962-2.632-10.58-2.597-3.62-7.861-3.62-3.116 0-5.437 1.531c-1.546.998-2.739 2.682-3.57 4.469h-.5l-1.25-5H177v38h9.5V35.75c0-4.71.173-7.92 1.097-9.892q1.384-2.993 4.363-2.993 2.25 0 3.255 2.158c.67 1.438 1.285 3.17 1.285 5.977" clip-rule="evenodd"/></svg>